<svg width="22" height="17" viewBox="0 0 22 17" fill="none" xmlns="http://www.w3.org/2000/svg">
<path d="M10 15.4066C10.5523 15.4066 11 14.9589 11 14.4066C11 13.8543 10.5523 13.4066 10 13.4066V15.4066ZM17.8754 8C17.8754 8.55228 18.3231 9 18.8754 9C19.4277 9 19.8754 8.55228 19.8754 8H17.8754ZM13.7071 12.2929C13.3166 11.9024 12.6834 11.9024 12.2929 12.2929C11.9024 12.6834 11.9024 13.3166 12.2929 13.7071L13.7071 12.2929ZM15.5 15.5L14.7929 16.2071C15.1834 16.5976 15.8166 16.5976 16.2071 16.2071L15.5 15.5ZM21.7071 10.7071C22.0976 10.3166 22.0976 9.68342 21.7071 9.29289C21.3166 8.90237 20.6834 8.90237 20.2929 9.29289L21.7071 10.7071ZM2.98616 2H16.8893V0H2.98616V2ZM2.98616 13.4066C2.40693 13.4066 2 12.9628 2 12.4913H0C0 14.1353 1.37154 15.4066 2.98616 15.4066V13.4066ZM16.8893 2C17.4685 2 17.8754 2.44373 17.8754 2.91522H19.8754C19.8754 1.27122 18.5039 0 16.8893 0V2ZM2.98616 0C1.37154 0 0 1.27122 0 2.91522H2C2 2.44373 2.40693 2 2.98616 2V0ZM2 12.4913V5.83045H0V12.4913H2ZM2 5.83045V2.91522H0V5.83045H2ZM1 6.83045H18.8754V4.83045H1V6.83045ZM19.8754 5.83045V2.91522H17.8754V5.83045H19.8754ZM10 13.4066H2.98616V15.4066H10V13.4066ZM19.8754 8V5.83045H17.8754V8H19.8754ZM12.2929 13.7071L14.7929 16.2071L16.2071 14.7929L13.7071 12.2929L12.2929 13.7071ZM16.2071 16.2071L21.7071 10.7071L20.2929 9.29289L14.7929 14.7929L16.2071 16.2071Z" fill="#373737"/>
</svg>
